<svg width="32" height="25" viewBox="0 0 32 25" fill="none" xmlns="http://www.w3.org/2000/svg">
<path d="M14.4881 12.2306L10.5638 16.1549C10.4007 16.318 10.3133 16.5183 10.3017 16.756C10.29 16.9936 10.3774 17.2056 10.5638 17.392C10.7501 17.5783 10.9563 17.6715 11.1823 17.6715C11.4083 17.6715 11.6144 17.5783 11.8008 17.392L15.7251 13.4677L19.6494 17.392C19.8125 17.555 20.0128 17.6424 20.2504 17.654C20.4881 17.6657 20.7001 17.5783 20.8864 17.392C21.0728 17.2056 21.166 16.9994 21.166 16.7734C21.166 16.5475 21.0728 16.3413 20.8864 16.1549L16.9621 12.2306L20.8864 8.30634C21.0495 8.14327 21.1369 7.94292 21.1485 7.7053C21.1602 7.46767 21.0728 7.25568 20.8864 7.0693C20.7001 6.88293 20.4939 6.78975 20.2679 6.78975C20.0419 6.78975 19.8358 6.88293 19.6494 7.0693L15.7251 10.9936L11.8008 7.0693C11.6377 6.90623 11.4374 6.81887 11.1998 6.80722C10.9621 6.79557 10.7501 6.88293 10.5638 7.0693C10.3774 7.25568 10.2842 7.46185 10.2842 7.68782C10.2842 7.9138 10.3774 8.11997 10.5638 8.30634L14.4881 12.2306ZM2.82353 24.4613C2.01864 24.4613 1.34712 24.1922 0.808969 23.654C0.270821 23.1159 0.00116482 22.4438 0 21.6377V2.82353C0 2.01864 0.269656 1.34712 0.808969 0.808969C1.34828 0.270821 2.01922 0.00116482 2.82178 0H28.6284C29.4321 0 30.1031 0.269656 30.6412 0.808969C31.1794 1.34828 31.449 2.0198 31.4502 2.82353V21.6395C31.4502 22.4432 31.1805 23.1147 30.6412 23.654C30.1019 24.1934 29.431 24.4624 28.6284 24.4613H2.82353Z" fill="#FF7A18"/>
</svg>
